<svg version="1.0" xmlns="http://www.w3.org/2000/svg" width="800" height="800" viewBox="0 0 600 600">
  <path d="M280.1 106.1a199 199 0 00-97.8 38.7c-11.3 8.5-29 26.2-37.5 37.5a197.9 197.9 0 00-36.9 85.3c-3 17-3.2 45.5-.5 61.8a195 195 0 00330.1 108.1A194 194 0 00472.9 211 195.2 195.2 0 00330 107.5a261.6 261.6 0 00-49.9-1.4zM271 287.7c0 78.9.2 84 1.9 87.8 2 4.5 3.3 5.8 8.7 8.5l3.9 1.9H242c-43 .1-43.5 0-39.5-1.8 5.5-2.5 9.1-7.1 10.5-13.3.8-3.8 1.1-21.5.8-60.3-.3-49.3-.5-55.3-2-58.1-2.6-4.7-4.6-5.9-11.5-6.4l-6.4-.5 37.8-20.7c20.8-11.4 38.1-20.7 38.6-20.7.4-.1.7 37.6.7 83.6zm83.9-79.2a38 38 0 0118 8.8c4.5 4.3 7.6 9.3 10.3 16.9 2.3 6.3 2.3 6.7 2.8 72.9l.5 66.5 2.7 4.1c1.5 2.4 4.4 4.8 7 6.1l4.3 2.1H357c-42.9 0-43.4-.1-39.4-1.9 4.7-2.1 8-5.8 9.5-10.9.7-2.4.9-20.4.7-55.1-.4-56.2-.5-56.9-6.6-69-5.3-10.6-15.6-14.4-28.7-10.5a30.6 30.6 0 00-14.9 8.4c-4.8 4.4-3.9 2.6 2.8-5.7a102.2 102.2 0 0136.4-27.2 71.1 71.1 0 0138.1-5.5z"/>
</svg>
